<mxfile host="app.diagrams.net" modified="2022-08-26T07:09:24.336Z" agent="5.0 (Windows NT 10.0; WOW64) AppleWebKit/537.36 (KHTML, like Gecko) Chrome/80.0.3987.87 Safari/537.36 SE 2.X MetaSr 1.0" etag="Eohlce_c7fCkUpV52ndJ" version="20.2.7" type="github">
  <diagram id="ZT4QKTwUXIaFVMcg_OeR" name="第 1 页">
    <mxGraphModel dx="3000" dy="1235" grid="0" gridSize="10" guides="1" tooltips="1" connect="1" arrows="1" fold="1" page="0" pageScale="1" pageWidth="827" pageHeight="1169" math="0" shadow="0">
      <root>
        <mxCell id="0" />
        <mxCell id="1" parent="0" />
        <mxCell id="RmbWy2bbRifr_mFCkCXx-22" style="edgeStyle=orthogonalEdgeStyle;rounded=0;orthogonalLoop=1;jettySize=auto;html=1;entryX=0.5;entryY=0;entryDx=0;entryDy=0;fontSize=26;strokeWidth=3;" edge="1" parent="1" source="RmbWy2bbRifr_mFCkCXx-1" target="RmbWy2bbRifr_mFCkCXx-3">
          <mxGeometry relative="1" as="geometry" />
        </mxCell>
        <mxCell id="RmbWy2bbRifr_mFCkCXx-39" style="edgeStyle=orthogonalEdgeStyle;rounded=0;orthogonalLoop=1;jettySize=auto;html=1;entryX=0.5;entryY=0;entryDx=0;entryDy=0;fontSize=26;strokeWidth=3;" edge="1" parent="1" source="RmbWy2bbRifr_mFCkCXx-1" target="RmbWy2bbRifr_mFCkCXx-13">
          <mxGeometry relative="1" as="geometry" />
        </mxCell>
        <mxCell id="RmbWy2bbRifr_mFCkCXx-1" value="&lt;font style=&quot;font-size: 26px;&quot;&gt;QQ上线&lt;/font&gt;" style="rounded=0;whiteSpace=wrap;html=1;" vertex="1" parent="1">
          <mxGeometry x="230" y="120" width="210" height="70" as="geometry" />
        </mxCell>
        <mxCell id="RmbWy2bbRifr_mFCkCXx-23" style="edgeStyle=orthogonalEdgeStyle;rounded=0;orthogonalLoop=1;jettySize=auto;html=1;entryX=0.5;entryY=0;entryDx=0;entryDy=0;fontSize=26;strokeWidth=3;" edge="1" parent="1" source="RmbWy2bbRifr_mFCkCXx-3" target="RmbWy2bbRifr_mFCkCXx-4">
          <mxGeometry relative="1" as="geometry" />
        </mxCell>
        <mxCell id="RmbWy2bbRifr_mFCkCXx-3" value="&lt;font style=&quot;font-size: 26px;&quot;&gt;音视频转包层(TMB)&lt;/font&gt;" style="rounded=0;whiteSpace=wrap;html=1;fontSize=28;fillColor=#e1d5e7;strokeColor=#9673a6;" vertex="1" parent="1">
          <mxGeometry x="230" y="240" width="210" height="70" as="geometry" />
        </mxCell>
        <mxCell id="RmbWy2bbRifr_mFCkCXx-24" style="edgeStyle=orthogonalEdgeStyle;rounded=0;orthogonalLoop=1;jettySize=auto;html=1;entryX=0.5;entryY=0;entryDx=0;entryDy=0;fontSize=26;strokeWidth=3;" edge="1" parent="1" source="RmbWy2bbRifr_mFCkCXx-4" target="RmbWy2bbRifr_mFCkCXx-5">
          <mxGeometry relative="1" as="geometry" />
        </mxCell>
        <mxCell id="RmbWy2bbRifr_mFCkCXx-4" value="消息通道&lt;br&gt;(ImAgent)" style="rounded=0;whiteSpace=wrap;html=1;fontSize=26;" vertex="1" parent="1">
          <mxGeometry x="230" y="360" width="210" height="70" as="geometry" />
        </mxCell>
        <mxCell id="RmbWy2bbRifr_mFCkCXx-25" style="edgeStyle=orthogonalEdgeStyle;rounded=0;orthogonalLoop=1;jettySize=auto;html=1;fontSize=26;strokeWidth=3;" edge="1" parent="1" source="RmbWy2bbRifr_mFCkCXx-5" target="RmbWy2bbRifr_mFCkCXx-7">
          <mxGeometry relative="1" as="geometry" />
        </mxCell>
        <mxCell id="RmbWy2bbRifr_mFCkCXx-5" value="音视频策略服务" style="rounded=0;whiteSpace=wrap;html=1;fontSize=26;" vertex="1" parent="1">
          <mxGeometry x="230" y="480" width="210" height="70" as="geometry" />
        </mxCell>
        <mxCell id="RmbWy2bbRifr_mFCkCXx-26" style="edgeStyle=orthogonalEdgeStyle;rounded=0;orthogonalLoop=1;jettySize=auto;html=1;fontSize=26;strokeWidth=3;" edge="1" parent="1" source="RmbWy2bbRifr_mFCkCXx-7" target="RmbWy2bbRifr_mFCkCXx-9">
          <mxGeometry relative="1" as="geometry" />
        </mxCell>
        <mxCell id="RmbWy2bbRifr_mFCkCXx-7" value="音视频调度服务" style="rounded=0;whiteSpace=wrap;html=1;fontSize=26;fillColor=#e1d5e7;strokeColor=#9673a6;" vertex="1" parent="1">
          <mxGeometry x="230" y="610" width="210" height="70" as="geometry" />
        </mxCell>
        <mxCell id="RmbWy2bbRifr_mFCkCXx-9" value="" style="shape=document;whiteSpace=wrap;html=1;boundedLbl=1;fontSize=26;fillColor=#ffcd28;gradientColor=#ffa500;strokeColor=#d79b00;" vertex="1" parent="1">
          <mxGeometry x="230" y="740" width="210" height="80" as="geometry" />
        </mxCell>
        <mxCell id="RmbWy2bbRifr_mFCkCXx-103" style="edgeStyle=orthogonalEdgeStyle;rounded=0;orthogonalLoop=1;jettySize=auto;html=1;fontSize=31;strokeColor=#000000;strokeWidth=3;" edge="1" parent="1" source="RmbWy2bbRifr_mFCkCXx-11" target="RmbWy2bbRifr_mFCkCXx-4">
          <mxGeometry relative="1" as="geometry" />
        </mxCell>
        <mxCell id="RmbWy2bbRifr_mFCkCXx-11" value="消息通道&lt;br&gt;(MsgAgent)" style="rounded=0;whiteSpace=wrap;html=1;fontSize=26;fillColor=#e1d5e7;strokeColor=#9673a6;" vertex="1" parent="1">
          <mxGeometry x="470" y="360" width="210" height="70" as="geometry" />
        </mxCell>
        <mxCell id="RmbWy2bbRifr_mFCkCXx-38" style="edgeStyle=orthogonalEdgeStyle;rounded=0;orthogonalLoop=1;jettySize=auto;html=1;entryX=0.5;entryY=0;entryDx=0;entryDy=0;fontSize=26;strokeWidth=3;" edge="1" parent="1" source="RmbWy2bbRifr_mFCkCXx-13" target="RmbWy2bbRifr_mFCkCXx-14">
          <mxGeometry relative="1" as="geometry" />
        </mxCell>
        <mxCell id="RmbWy2bbRifr_mFCkCXx-13" value="音视频接口机" style="rounded=0;whiteSpace=wrap;html=1;fontSize=26;" vertex="1" parent="1">
          <mxGeometry x="-270" y="420" width="210" height="70" as="geometry" />
        </mxCell>
        <mxCell id="RmbWy2bbRifr_mFCkCXx-43" style="edgeStyle=orthogonalEdgeStyle;rounded=0;orthogonalLoop=1;jettySize=auto;html=1;exitX=0.627;exitY=0.995;exitDx=0;exitDy=0;entryX=0;entryY=0.5;entryDx=0;entryDy=0;fontSize=26;strokeWidth=3;exitPerimeter=0;" edge="1" parent="1" source="RmbWy2bbRifr_mFCkCXx-14" target="RmbWy2bbRifr_mFCkCXx-21">
          <mxGeometry relative="1" as="geometry">
            <Array as="points">
              <mxPoint x="-140" y="670" />
              <mxPoint x="-140" y="775" />
            </Array>
          </mxGeometry>
        </mxCell>
        <mxCell id="RmbWy2bbRifr_mFCkCXx-14" value="音视频流控" style="rounded=0;whiteSpace=wrap;html=1;fontSize=26;fillColor=#008a00;fontColor=#ffffff;strokeColor=#005700;" vertex="1" parent="1">
          <mxGeometry x="-270" y="600" width="210" height="70" as="geometry" />
        </mxCell>
        <mxCell id="RmbWy2bbRifr_mFCkCXx-15" value="上线队列服务器" style="rounded=0;whiteSpace=wrap;html=1;fontSize=26;fillColor=#e1d5e7;strokeColor=#9673a6;" vertex="1" parent="1">
          <mxGeometry x="800" y="450" width="200" height="70" as="geometry" />
        </mxCell>
        <mxCell id="RmbWy2bbRifr_mFCkCXx-31" style="edgeStyle=orthogonalEdgeStyle;rounded=0;orthogonalLoop=1;jettySize=auto;html=1;fontSize=26;strokeWidth=3;strokeColor=#FF8000;" edge="1" parent="1" source="RmbWy2bbRifr_mFCkCXx-16" target="RmbWy2bbRifr_mFCkCXx-17">
          <mxGeometry relative="1" as="geometry" />
        </mxCell>
        <mxCell id="RmbWy2bbRifr_mFCkCXx-172" style="edgeStyle=orthogonalEdgeStyle;rounded=0;orthogonalLoop=1;jettySize=auto;html=1;entryX=0.5;entryY=1;entryDx=0;entryDy=0;fontSize=26;fontColor=#000000;strokeColor=#FF8000;strokeWidth=3;" edge="1" parent="1" source="RmbWy2bbRifr_mFCkCXx-16" target="RmbWy2bbRifr_mFCkCXx-15">
          <mxGeometry relative="1" as="geometry" />
        </mxCell>
        <mxCell id="RmbWy2bbRifr_mFCkCXx-16" value="上线队列分发器" style="rounded=0;whiteSpace=wrap;html=1;fontSize=26;fillColor=#990000;fontColor=#ffffff;strokeColor=#B20000;" vertex="1" parent="1">
          <mxGeometry x="800" y="600" width="200" height="70" as="geometry" />
        </mxCell>
        <mxCell id="RmbWy2bbRifr_mFCkCXx-28" style="edgeStyle=orthogonalEdgeStyle;rounded=0;orthogonalLoop=1;jettySize=auto;html=1;fontSize=26;strokeWidth=3;strokeColor=#FF8000;" edge="1" parent="1" source="RmbWy2bbRifr_mFCkCXx-17" target="RmbWy2bbRifr_mFCkCXx-9">
          <mxGeometry relative="1" as="geometry" />
        </mxCell>
        <mxCell id="RmbWy2bbRifr_mFCkCXx-29" style="edgeStyle=orthogonalEdgeStyle;rounded=0;orthogonalLoop=1;jettySize=auto;html=1;fontSize=26;strokeWidth=3;strokeColor=#FF8000;" edge="1" parent="1" source="RmbWy2bbRifr_mFCkCXx-17" target="RmbWy2bbRifr_mFCkCXx-27">
          <mxGeometry relative="1" as="geometry">
            <Array as="points" />
          </mxGeometry>
        </mxCell>
        <mxCell id="RmbWy2bbRifr_mFCkCXx-33" style="edgeStyle=orthogonalEdgeStyle;rounded=0;orthogonalLoop=1;jettySize=auto;html=1;entryX=0.5;entryY=1;entryDx=0;entryDy=0;fontSize=26;strokeWidth=3;strokeColor=#FF9933;" edge="1" parent="1" source="RmbWy2bbRifr_mFCkCXx-17" target="RmbWy2bbRifr_mFCkCXx-11">
          <mxGeometry relative="1" as="geometry" />
        </mxCell>
        <mxCell id="RmbWy2bbRifr_mFCkCXx-34" style="edgeStyle=orthogonalEdgeStyle;rounded=0;orthogonalLoop=1;jettySize=auto;html=1;entryX=1;entryY=0.5;entryDx=0;entryDy=0;fontSize=26;strokeWidth=3;strokeColor=#FF8000;" edge="1" parent="1" source="RmbWy2bbRifr_mFCkCXx-17" target="RmbWy2bbRifr_mFCkCXx-3">
          <mxGeometry relative="1" as="geometry">
            <Array as="points">
              <mxPoint x="740" y="780" />
              <mxPoint x="740" y="275" />
            </Array>
          </mxGeometry>
        </mxCell>
        <mxCell id="RmbWy2bbRifr_mFCkCXx-35" style="edgeStyle=orthogonalEdgeStyle;rounded=0;orthogonalLoop=1;jettySize=auto;html=1;fontSize=26;strokeWidth=3;strokeColor=#FF8000;" edge="1" parent="1" source="RmbWy2bbRifr_mFCkCXx-17" target="RmbWy2bbRifr_mFCkCXx-21">
          <mxGeometry relative="1" as="geometry">
            <Array as="points">
              <mxPoint x="740" y="780" />
              <mxPoint x="740" y="880" />
              <mxPoint x="80" y="880" />
            </Array>
          </mxGeometry>
        </mxCell>
        <mxCell id="RmbWy2bbRifr_mFCkCXx-46" style="edgeStyle=orthogonalEdgeStyle;rounded=0;orthogonalLoop=1;jettySize=auto;html=1;entryX=0.25;entryY=1;entryDx=0;entryDy=0;fontSize=26;strokeWidth=3;strokeColor=#FF8000;startArrow=none;" edge="1" parent="1" target="RmbWy2bbRifr_mFCkCXx-14">
          <mxGeometry relative="1" as="geometry">
            <mxPoint x="799" y="780" as="sourcePoint" />
            <Array as="points">
              <mxPoint x="741" y="780" />
              <mxPoint x="741" y="940" />
              <mxPoint x="-217" y="940" />
            </Array>
          </mxGeometry>
        </mxCell>
        <mxCell id="RmbWy2bbRifr_mFCkCXx-17" value="上线推送" style="rounded=0;whiteSpace=wrap;html=1;fontSize=26;fillColor=#990000;fontColor=#ffffff;strokeColor=#B20000;" vertex="1" parent="1">
          <mxGeometry x="800" y="745" width="200" height="70" as="geometry" />
        </mxCell>
        <mxCell id="RmbWy2bbRifr_mFCkCXx-37" value="" style="group" vertex="1" connectable="0" parent="1">
          <mxGeometry x="-30" y="590" width="212" height="80" as="geometry" />
        </mxCell>
        <mxCell id="RmbWy2bbRifr_mFCkCXx-18" value="" style="shape=document;whiteSpace=wrap;html=1;boundedLbl=1;fontSize=26;rotation=-180;fillColor=#ffcd28;gradientColor=#ffa500;strokeColor=#d79b00;" vertex="1" parent="RmbWy2bbRifr_mFCkCXx-37">
          <mxGeometry width="210" height="80" as="geometry" />
        </mxCell>
        <mxCell id="RmbWy2bbRifr_mFCkCXx-19" value="房间状态信息&lt;br&gt;redis" style="text;html=1;strokeColor=none;fillColor=none;align=center;verticalAlign=middle;whiteSpace=wrap;rounded=0;fontSize=26;" vertex="1" parent="RmbWy2bbRifr_mFCkCXx-37">
          <mxGeometry x="2" y="35" width="210" height="30" as="geometry" />
        </mxCell>
        <mxCell id="RmbWy2bbRifr_mFCkCXx-45" style="edgeStyle=orthogonalEdgeStyle;rounded=0;orthogonalLoop=1;jettySize=auto;html=1;entryX=0.5;entryY=0;entryDx=0;entryDy=0;fontSize=26;strokeWidth=3;" edge="1" parent="1" source="RmbWy2bbRifr_mFCkCXx-21" target="RmbWy2bbRifr_mFCkCXx-18">
          <mxGeometry relative="1" as="geometry" />
        </mxCell>
        <mxCell id="RmbWy2bbRifr_mFCkCXx-21" value="房间状态同步服务&lt;br&gt;(roomState)" style="rounded=0;whiteSpace=wrap;html=1;fontSize=26;fillColor=#e1d5e7;strokeColor=#9673a6;" vertex="1" parent="1">
          <mxGeometry x="-39" y="740" width="226" height="70" as="geometry" />
        </mxCell>
        <mxCell id="RmbWy2bbRifr_mFCkCXx-48" value="&lt;b&gt;&lt;font style=&quot;font-size: 31px;&quot;&gt;①&lt;/font&gt;&lt;/b&gt;" style="text;html=1;strokeColor=none;fillColor=none;align=center;verticalAlign=middle;whiteSpace=wrap;rounded=0;fontSize=26;" vertex="1" parent="1">
          <mxGeometry x="900" y="534.5" width="60" height="50" as="geometry" />
        </mxCell>
        <mxCell id="RmbWy2bbRifr_mFCkCXx-49" value="&lt;b&gt;&lt;font style=&quot;font-size: 31px;&quot;&gt;②&lt;/font&gt;&lt;/b&gt;" style="text;html=1;strokeColor=none;fillColor=none;align=center;verticalAlign=middle;whiteSpace=wrap;rounded=0;fontSize=26;" vertex="1" parent="1">
          <mxGeometry x="900" y="680" width="60" height="50" as="geometry" />
        </mxCell>
        <mxCell id="RmbWy2bbRifr_mFCkCXx-50" value="&lt;b&gt;&lt;font style=&quot;font-size: 31px;&quot;&gt;③&lt;/font&gt;&lt;/b&gt;" style="text;html=1;strokeColor=none;fillColor=none;align=center;verticalAlign=middle;whiteSpace=wrap;rounded=0;fontSize=26;" vertex="1" parent="1">
          <mxGeometry x="897" y="826" width="60" height="50" as="geometry" />
        </mxCell>
        <mxCell id="RmbWy2bbRifr_mFCkCXx-51" value="&lt;b&gt;&lt;font style=&quot;font-size: 31px;&quot;&gt;④&lt;/font&gt;&lt;/b&gt;" style="text;html=1;strokeColor=none;fillColor=none;align=center;verticalAlign=middle;whiteSpace=wrap;rounded=0;fontSize=26;" vertex="1" parent="1">
          <mxGeometry x="545" y="830" width="60" height="50" as="geometry" />
        </mxCell>
        <mxCell id="RmbWy2bbRifr_mFCkCXx-53" value="&lt;b&gt;&lt;font style=&quot;font-size: 31px;&quot;&gt;⑤&lt;/font&gt;&lt;/b&gt;" style="text;html=1;strokeColor=none;fillColor=none;align=center;verticalAlign=middle;whiteSpace=wrap;rounded=0;fontSize=26;" vertex="1" parent="1">
          <mxGeometry x="470" y="730" width="60" height="50" as="geometry" />
        </mxCell>
        <mxCell id="RmbWy2bbRifr_mFCkCXx-54" value="&lt;b&gt;&lt;font style=&quot;font-size: 31px;&quot;&gt;⑥&lt;/font&gt;&lt;/b&gt;" style="text;html=1;strokeColor=none;fillColor=none;align=center;verticalAlign=middle;whiteSpace=wrap;rounded=0;fontSize=26;" vertex="1" parent="1">
          <mxGeometry x="-108" y="886" width="60" height="50" as="geometry" />
        </mxCell>
        <mxCell id="RmbWy2bbRifr_mFCkCXx-55" value="&lt;b&gt;&lt;font style=&quot;font-size: 31px;&quot;&gt;⑦&lt;/font&gt;&lt;/b&gt;" style="text;html=1;strokeColor=none;fillColor=none;align=center;verticalAlign=middle;whiteSpace=wrap;rounded=0;fontSize=26;" vertex="1" parent="1">
          <mxGeometry x="580" y="560" width="60" height="50" as="geometry" />
        </mxCell>
        <mxCell id="RmbWy2bbRifr_mFCkCXx-56" value="&lt;b&gt;&lt;font style=&quot;font-size: 31px;&quot;&gt;⑧&lt;/font&gt;&lt;/b&gt;" style="text;html=1;strokeColor=none;fillColor=none;align=center;verticalAlign=middle;whiteSpace=wrap;rounded=0;fontSize=26;" vertex="1" parent="1">
          <mxGeometry x="750" y="300" width="60" height="50" as="geometry" />
        </mxCell>
        <mxCell id="RmbWy2bbRifr_mFCkCXx-60" style="edgeStyle=orthogonalEdgeStyle;rounded=0;orthogonalLoop=1;jettySize=auto;html=1;entryX=0.5;entryY=0;entryDx=0;entryDy=0;fontSize=26;strokeWidth=3;" edge="1" parent="1" source="RmbWy2bbRifr_mFCkCXx-62" target="RmbWy2bbRifr_mFCkCXx-64">
          <mxGeometry relative="1" as="geometry" />
        </mxCell>
        <mxCell id="RmbWy2bbRifr_mFCkCXx-61" style="edgeStyle=orthogonalEdgeStyle;rounded=0;orthogonalLoop=1;jettySize=auto;html=1;entryX=0.5;entryY=0;entryDx=0;entryDy=0;fontSize=26;strokeWidth=3;" edge="1" parent="1" source="RmbWy2bbRifr_mFCkCXx-62" target="RmbWy2bbRifr_mFCkCXx-74">
          <mxGeometry relative="1" as="geometry" />
        </mxCell>
        <mxCell id="RmbWy2bbRifr_mFCkCXx-62" value="&lt;font style=&quot;font-size: 26px;&quot;&gt;QQ上线&lt;/font&gt;" style="rounded=0;whiteSpace=wrap;html=1;" vertex="1" parent="1">
          <mxGeometry x="220" y="1100" width="210" height="70" as="geometry" />
        </mxCell>
        <mxCell id="RmbWy2bbRifr_mFCkCXx-63" style="edgeStyle=orthogonalEdgeStyle;rounded=0;orthogonalLoop=1;jettySize=auto;html=1;entryX=0.5;entryY=0;entryDx=0;entryDy=0;fontSize=26;strokeWidth=3;" edge="1" parent="1" source="RmbWy2bbRifr_mFCkCXx-64" target="RmbWy2bbRifr_mFCkCXx-66">
          <mxGeometry relative="1" as="geometry" />
        </mxCell>
        <mxCell id="RmbWy2bbRifr_mFCkCXx-64" value="&lt;font style=&quot;font-size: 26px;&quot;&gt;音视频转包层(TMB)&lt;/font&gt;" style="rounded=0;whiteSpace=wrap;html=1;fontSize=28;fillColor=#e1d5e7;strokeColor=#9673a6;" vertex="1" parent="1">
          <mxGeometry x="220" y="1220" width="210" height="70" as="geometry" />
        </mxCell>
        <mxCell id="RmbWy2bbRifr_mFCkCXx-66" value="消息通道&lt;br&gt;(ImAgent)" style="rounded=0;whiteSpace=wrap;html=1;fontSize=26;" vertex="1" parent="1">
          <mxGeometry x="220" y="1340" width="210" height="70" as="geometry" />
        </mxCell>
        <mxCell id="RmbWy2bbRifr_mFCkCXx-156" style="edgeStyle=orthogonalEdgeStyle;rounded=0;orthogonalLoop=1;jettySize=auto;html=1;fontSize=26;fontColor=#CC0000;strokeColor=#000000;strokeWidth=3;" edge="1" parent="1" source="RmbWy2bbRifr_mFCkCXx-72" target="RmbWy2bbRifr_mFCkCXx-66">
          <mxGeometry relative="1" as="geometry" />
        </mxCell>
        <mxCell id="RmbWy2bbRifr_mFCkCXx-72" value="消息通道&lt;br&gt;(MsgAgent)" style="rounded=0;whiteSpace=wrap;html=1;fontSize=26;fillColor=#e1d5e7;strokeColor=#9673a6;" vertex="1" parent="1">
          <mxGeometry x="460" y="1340" width="210" height="70" as="geometry" />
        </mxCell>
        <mxCell id="RmbWy2bbRifr_mFCkCXx-73" style="edgeStyle=orthogonalEdgeStyle;rounded=0;orthogonalLoop=1;jettySize=auto;html=1;entryX=0.5;entryY=0;entryDx=0;entryDy=0;fontSize=26;strokeWidth=3;exitX=0.5;exitY=1;exitDx=0;exitDy=0;" edge="1" parent="1" source="RmbWy2bbRifr_mFCkCXx-74" target="RmbWy2bbRifr_mFCkCXx-76">
          <mxGeometry relative="1" as="geometry">
            <mxPoint x="-175" y="1544" as="sourcePoint" />
          </mxGeometry>
        </mxCell>
        <mxCell id="RmbWy2bbRifr_mFCkCXx-74" value="音视频接口机" style="rounded=0;whiteSpace=wrap;html=1;fontSize=26;" vertex="1" parent="1">
          <mxGeometry x="-280" y="1400" width="210" height="70" as="geometry" />
        </mxCell>
        <mxCell id="RmbWy2bbRifr_mFCkCXx-158" style="edgeStyle=orthogonalEdgeStyle;rounded=0;orthogonalLoop=1;jettySize=auto;html=1;entryX=0;entryY=0.5;entryDx=0;entryDy=0;fontSize=26;fontColor=#CC0000;strokeColor=#000000;strokeWidth=3;" edge="1" parent="1" source="RmbWy2bbRifr_mFCkCXx-76" target="RmbWy2bbRifr_mFCkCXx-93">
          <mxGeometry relative="1" as="geometry" />
        </mxCell>
        <mxCell id="RmbWy2bbRifr_mFCkCXx-76" value="音视频流控" style="rounded=0;whiteSpace=wrap;html=1;fontSize=26;" vertex="1" parent="1">
          <mxGeometry x="-280" y="1654" width="210" height="70" as="geometry" />
        </mxCell>
        <mxCell id="RmbWy2bbRifr_mFCkCXx-78" value="上线队列服务器" style="rounded=0;whiteSpace=wrap;html=1;fontSize=26;fillColor=#e1d5e7;strokeColor=#9673a6;" vertex="1" parent="1">
          <mxGeometry x="750" y="1430" width="200" height="70" as="geometry" />
        </mxCell>
        <mxCell id="RmbWy2bbRifr_mFCkCXx-82" style="edgeStyle=orthogonalEdgeStyle;rounded=0;orthogonalLoop=1;jettySize=auto;html=1;fontSize=26;strokeWidth=3;strokeColor=#FF8000;" edge="1" parent="1" source="RmbWy2bbRifr_mFCkCXx-87" target="RmbWy2bbRifr_mFCkCXx-88">
          <mxGeometry relative="1" as="geometry" />
        </mxCell>
        <mxCell id="RmbWy2bbRifr_mFCkCXx-83" style="edgeStyle=orthogonalEdgeStyle;rounded=0;orthogonalLoop=1;jettySize=auto;html=1;entryX=0.5;entryY=1;entryDx=0;entryDy=0;fontSize=26;strokeWidth=3;strokeColor=#FF9933;" edge="1" parent="1" source="RmbWy2bbRifr_mFCkCXx-87" target="RmbWy2bbRifr_mFCkCXx-72">
          <mxGeometry relative="1" as="geometry" />
        </mxCell>
        <mxCell id="RmbWy2bbRifr_mFCkCXx-84" style="edgeStyle=orthogonalEdgeStyle;rounded=0;orthogonalLoop=1;jettySize=auto;html=1;entryX=1;entryY=0.5;entryDx=0;entryDy=0;fontSize=26;strokeWidth=3;strokeColor=#FF8000;" edge="1" parent="1" source="RmbWy2bbRifr_mFCkCXx-87" target="RmbWy2bbRifr_mFCkCXx-64">
          <mxGeometry relative="1" as="geometry">
            <Array as="points">
              <mxPoint x="686" y="1689" />
              <mxPoint x="686" y="1255" />
            </Array>
          </mxGeometry>
        </mxCell>
        <mxCell id="RmbWy2bbRifr_mFCkCXx-85" style="edgeStyle=orthogonalEdgeStyle;rounded=0;orthogonalLoop=1;jettySize=auto;html=1;fontSize=26;strokeWidth=3;strokeColor=#FF8000;" edge="1" parent="1" source="RmbWy2bbRifr_mFCkCXx-87" target="RmbWy2bbRifr_mFCkCXx-93">
          <mxGeometry relative="1" as="geometry">
            <Array as="points">
              <mxPoint x="432" y="1689" />
              <mxPoint x="432" y="1689" />
            </Array>
          </mxGeometry>
        </mxCell>
        <mxCell id="RmbWy2bbRifr_mFCkCXx-157" style="edgeStyle=orthogonalEdgeStyle;rounded=0;orthogonalLoop=1;jettySize=auto;html=1;fontSize=26;fontColor=#CC0000;strokeColor=#FF8000;strokeWidth=3;" edge="1" parent="1" source="RmbWy2bbRifr_mFCkCXx-87">
          <mxGeometry relative="1" as="geometry">
            <mxPoint x="850" y="1501.5" as="targetPoint" />
          </mxGeometry>
        </mxCell>
        <mxCell id="RmbWy2bbRifr_mFCkCXx-87" value="上线推送" style="rounded=0;whiteSpace=wrap;html=1;fontSize=26;fillColor=#990000;fontColor=#ffffff;strokeColor=#B20000;" vertex="1" parent="1">
          <mxGeometry x="750" y="1654" width="200" height="70" as="geometry" />
        </mxCell>
        <mxCell id="RmbWy2bbRifr_mFCkCXx-88" value="OIDB关系链" style="rounded=0;whiteSpace=wrap;html=1;fontSize=26;fillColor=#e1d5e7;strokeColor=#9673a6;" vertex="1" parent="1">
          <mxGeometry x="750" y="1807" width="200" height="70" as="geometry" />
        </mxCell>
        <mxCell id="RmbWy2bbRifr_mFCkCXx-89" value="" style="group" vertex="1" connectable="0" parent="1">
          <mxGeometry x="52.5" y="1503" width="210" height="80" as="geometry" />
        </mxCell>
        <mxCell id="RmbWy2bbRifr_mFCkCXx-90" value="" style="shape=document;whiteSpace=wrap;html=1;boundedLbl=1;fontSize=26;rotation=-180;fillColor=#ffcd28;gradientColor=#ffa500;strokeColor=#d79b00;" vertex="1" parent="RmbWy2bbRifr_mFCkCXx-89">
          <mxGeometry width="210" height="80" as="geometry" />
        </mxCell>
        <mxCell id="RmbWy2bbRifr_mFCkCXx-91" value="房间信息&lt;br&gt;redis" style="text;html=1;strokeColor=none;fillColor=none;align=center;verticalAlign=middle;whiteSpace=wrap;rounded=0;fontSize=26;" vertex="1" parent="RmbWy2bbRifr_mFCkCXx-89">
          <mxGeometry x="1" y="35" width="209" height="30" as="geometry" />
        </mxCell>
        <mxCell id="RmbWy2bbRifr_mFCkCXx-92" style="edgeStyle=orthogonalEdgeStyle;rounded=0;orthogonalLoop=1;jettySize=auto;html=1;entryX=0.5;entryY=0;entryDx=0;entryDy=0;fontSize=26;strokeWidth=3;" edge="1" parent="1" source="RmbWy2bbRifr_mFCkCXx-93" target="RmbWy2bbRifr_mFCkCXx-90">
          <mxGeometry relative="1" as="geometry" />
        </mxCell>
        <mxCell id="RmbWy2bbRifr_mFCkCXx-93" value="房间信息同步服务&lt;br&gt;(roomState)" style="rounded=0;whiteSpace=wrap;html=1;fontSize=26;fillColor=#e1d5e7;strokeColor=#9673a6;" vertex="1" parent="1">
          <mxGeometry x="49" y="1654" width="217" height="70" as="geometry" />
        </mxCell>
        <mxCell id="RmbWy2bbRifr_mFCkCXx-96" value="&lt;b&gt;&lt;font style=&quot;font-size: 31px;&quot;&gt;②&lt;/font&gt;&lt;/b&gt;" style="text;html=1;strokeColor=none;fillColor=none;align=center;verticalAlign=middle;whiteSpace=wrap;rounded=0;fontSize=26;" vertex="1" parent="1">
          <mxGeometry x="850" y="1739" width="60" height="50" as="geometry" />
        </mxCell>
        <mxCell id="RmbWy2bbRifr_mFCkCXx-97" value="&lt;b&gt;&lt;font style=&quot;font-size: 31px;&quot;&gt;③&lt;/font&gt;&lt;/b&gt;" style="text;html=1;strokeColor=none;fillColor=none;align=center;verticalAlign=middle;whiteSpace=wrap;rounded=0;fontSize=26;" vertex="1" parent="1">
          <mxGeometry x="400" y="1638" width="60" height="50" as="geometry" />
        </mxCell>
        <mxCell id="RmbWy2bbRifr_mFCkCXx-100" value="&lt;b&gt;&lt;font style=&quot;font-size: 31px;&quot;&gt;④&lt;/font&gt;&lt;/b&gt;" style="text;html=1;strokeColor=none;fillColor=none;align=center;verticalAlign=middle;whiteSpace=wrap;rounded=0;fontSize=26;" vertex="1" parent="1">
          <mxGeometry x="570" y="1540" width="60" height="50" as="geometry" />
        </mxCell>
        <mxCell id="RmbWy2bbRifr_mFCkCXx-101" value="&lt;b&gt;&lt;font style=&quot;font-size: 31px;&quot;&gt;⑤&lt;/font&gt;&lt;/b&gt;" style="text;html=1;strokeColor=none;fillColor=none;align=center;verticalAlign=middle;whiteSpace=wrap;rounded=0;fontSize=26;" vertex="1" parent="1">
          <mxGeometry x="700" y="1317" width="60" height="50" as="geometry" />
        </mxCell>
        <mxCell id="RmbWy2bbRifr_mFCkCXx-104" value="&lt;b&gt;&lt;font style=&quot;font-size: 31px;&quot;&gt;①&lt;/font&gt;&lt;/b&gt;" style="text;html=1;strokeColor=none;fillColor=none;align=center;verticalAlign=middle;whiteSpace=wrap;rounded=0;fontSize=26;" vertex="1" parent="1">
          <mxGeometry x="850" y="1549" width="60" height="50" as="geometry" />
        </mxCell>
        <mxCell id="RmbWy2bbRifr_mFCkCXx-27" value="OIDB关系链" style="rounded=0;whiteSpace=wrap;html=1;fontSize=26;fillColor=#e1d5e7;strokeColor=#9673a6;" vertex="1" parent="1">
          <mxGeometry x="800" y="893" width="200" height="70" as="geometry" />
        </mxCell>
        <mxCell id="RmbWy2bbRifr_mFCkCXx-110" style="edgeStyle=orthogonalEdgeStyle;rounded=0;orthogonalLoop=1;jettySize=auto;html=1;entryX=0.5;entryY=0;entryDx=0;entryDy=0;fontSize=26;strokeWidth=3;" edge="1" parent="1" source="RmbWy2bbRifr_mFCkCXx-112" target="RmbWy2bbRifr_mFCkCXx-114">
          <mxGeometry relative="1" as="geometry" />
        </mxCell>
        <mxCell id="RmbWy2bbRifr_mFCkCXx-111" style="edgeStyle=orthogonalEdgeStyle;rounded=0;orthogonalLoop=1;jettySize=auto;html=1;entryX=0.5;entryY=0;entryDx=0;entryDy=0;fontSize=26;strokeWidth=3;" edge="1" parent="1" source="RmbWy2bbRifr_mFCkCXx-112" target="RmbWy2bbRifr_mFCkCXx-124">
          <mxGeometry relative="1" as="geometry" />
        </mxCell>
        <mxCell id="RmbWy2bbRifr_mFCkCXx-112" value="&lt;font style=&quot;font-size: 26px;&quot;&gt;QQ上线&lt;/font&gt;" style="rounded=0;whiteSpace=wrap;html=1;" vertex="1" parent="1">
          <mxGeometry x="538" y="2218" width="210" height="70" as="geometry" />
        </mxCell>
        <mxCell id="RmbWy2bbRifr_mFCkCXx-113" style="edgeStyle=orthogonalEdgeStyle;rounded=0;orthogonalLoop=1;jettySize=auto;html=1;entryX=0.5;entryY=0;entryDx=0;entryDy=0;fontSize=26;strokeWidth=3;" edge="1" parent="1" source="RmbWy2bbRifr_mFCkCXx-114" target="RmbWy2bbRifr_mFCkCXx-116">
          <mxGeometry relative="1" as="geometry" />
        </mxCell>
        <mxCell id="RmbWy2bbRifr_mFCkCXx-114" value="&lt;font style=&quot;font-size: 26px;&quot;&gt;音视频转包层(TMB)&lt;/font&gt;" style="rounded=0;whiteSpace=wrap;html=1;fontSize=28;fillColor=#e1d5e7;strokeColor=#9673a6;" vertex="1" parent="1">
          <mxGeometry x="538" y="2338" width="210" height="70" as="geometry" />
        </mxCell>
        <mxCell id="RmbWy2bbRifr_mFCkCXx-115" style="edgeStyle=orthogonalEdgeStyle;rounded=0;orthogonalLoop=1;jettySize=auto;html=1;entryX=0.5;entryY=0;entryDx=0;entryDy=0;fontSize=26;strokeWidth=3;" edge="1" parent="1" source="RmbWy2bbRifr_mFCkCXx-116" target="RmbWy2bbRifr_mFCkCXx-118">
          <mxGeometry relative="1" as="geometry" />
        </mxCell>
        <mxCell id="RmbWy2bbRifr_mFCkCXx-116" value="消息通道&lt;br&gt;(ImAgent)" style="rounded=0;whiteSpace=wrap;html=1;fontSize=26;" vertex="1" parent="1">
          <mxGeometry x="538" y="2458" width="210" height="70" as="geometry" />
        </mxCell>
        <mxCell id="RmbWy2bbRifr_mFCkCXx-117" style="edgeStyle=orthogonalEdgeStyle;rounded=0;orthogonalLoop=1;jettySize=auto;html=1;fontSize=26;strokeWidth=3;" edge="1" parent="1" source="RmbWy2bbRifr_mFCkCXx-118" target="RmbWy2bbRifr_mFCkCXx-120">
          <mxGeometry relative="1" as="geometry" />
        </mxCell>
        <mxCell id="RmbWy2bbRifr_mFCkCXx-181" value="" style="edgeStyle=orthogonalEdgeStyle;rounded=0;orthogonalLoop=1;jettySize=auto;html=1;fontSize=26;fontColor=#000000;strokeColor=#000000;strokeWidth=3;" edge="1" parent="1" source="RmbWy2bbRifr_mFCkCXx-118" target="RmbWy2bbRifr_mFCkCXx-116">
          <mxGeometry relative="1" as="geometry" />
        </mxCell>
        <mxCell id="RmbWy2bbRifr_mFCkCXx-118" value="音视频策略服务" style="rounded=0;whiteSpace=wrap;html=1;fontSize=26;" vertex="1" parent="1">
          <mxGeometry x="538" y="2578" width="210" height="70" as="geometry" />
        </mxCell>
        <mxCell id="RmbWy2bbRifr_mFCkCXx-119" style="edgeStyle=orthogonalEdgeStyle;rounded=0;orthogonalLoop=1;jettySize=auto;html=1;fontSize=26;strokeWidth=3;" edge="1" parent="1" source="RmbWy2bbRifr_mFCkCXx-120" target="RmbWy2bbRifr_mFCkCXx-121">
          <mxGeometry relative="1" as="geometry" />
        </mxCell>
        <mxCell id="RmbWy2bbRifr_mFCkCXx-120" value="音视频调度服务" style="rounded=0;whiteSpace=wrap;html=1;fontSize=26;" vertex="1" parent="1">
          <mxGeometry x="538" y="2708" width="210" height="70" as="geometry" />
        </mxCell>
        <mxCell id="RmbWy2bbRifr_mFCkCXx-121" value="" style="shape=document;whiteSpace=wrap;html=1;boundedLbl=1;fontSize=26;fillColor=#ffcd28;gradientColor=#ffa500;strokeColor=#d79b00;" vertex="1" parent="1">
          <mxGeometry x="538" y="2838" width="210" height="80" as="geometry" />
        </mxCell>
        <mxCell id="RmbWy2bbRifr_mFCkCXx-122" value="消息通道&lt;br&gt;(MsgAgent)" style="rounded=0;whiteSpace=wrap;html=1;fontSize=26;fillColor=#e1d5e7;strokeColor=#9673a6;" vertex="1" parent="1">
          <mxGeometry x="778" y="2458" width="210" height="70" as="geometry" />
        </mxCell>
        <mxCell id="RmbWy2bbRifr_mFCkCXx-123" style="edgeStyle=orthogonalEdgeStyle;rounded=0;orthogonalLoop=1;jettySize=auto;html=1;entryX=0.5;entryY=0;entryDx=0;entryDy=0;fontSize=26;strokeWidth=3;" edge="1" parent="1" source="RmbWy2bbRifr_mFCkCXx-124" target="RmbWy2bbRifr_mFCkCXx-126">
          <mxGeometry relative="1" as="geometry" />
        </mxCell>
        <mxCell id="RmbWy2bbRifr_mFCkCXx-124" value="音视频接口机" style="rounded=0;whiteSpace=wrap;html=1;fontSize=26;" vertex="1" parent="1">
          <mxGeometry x="38" y="2518" width="210" height="70" as="geometry" />
        </mxCell>
        <mxCell id="RmbWy2bbRifr_mFCkCXx-125" style="edgeStyle=orthogonalEdgeStyle;rounded=0;orthogonalLoop=1;jettySize=auto;html=1;exitX=0.627;exitY=0.995;exitDx=0;exitDy=0;entryX=0;entryY=0.5;entryDx=0;entryDy=0;fontSize=26;strokeWidth=3;exitPerimeter=0;" edge="1" parent="1" source="RmbWy2bbRifr_mFCkCXx-126" target="RmbWy2bbRifr_mFCkCXx-139">
          <mxGeometry relative="1" as="geometry">
            <Array as="points">
              <mxPoint x="168" y="2768" />
              <mxPoint x="168" y="2873" />
            </Array>
          </mxGeometry>
        </mxCell>
        <mxCell id="RmbWy2bbRifr_mFCkCXx-126" value="音视频流控" style="rounded=0;whiteSpace=wrap;html=1;fontSize=26;fillColor=#008a00;fontColor=#ffffff;strokeColor=#005700;" vertex="1" parent="1">
          <mxGeometry x="38" y="2698" width="210" height="70" as="geometry" />
        </mxCell>
        <mxCell id="RmbWy2bbRifr_mFCkCXx-127" value="上线队列服务器" style="rounded=0;whiteSpace=wrap;html=1;fontSize=26;fillColor=#e1d5e7;strokeColor=#9673a6;" vertex="1" parent="1">
          <mxGeometry x="1068" y="2548" width="200" height="70" as="geometry" />
        </mxCell>
        <mxCell id="RmbWy2bbRifr_mFCkCXx-128" style="edgeStyle=orthogonalEdgeStyle;rounded=0;orthogonalLoop=1;jettySize=auto;html=1;fontSize=26;strokeWidth=3;strokeColor=#FF8000;exitX=0.5;exitY=1;exitDx=0;exitDy=0;" edge="1" parent="1" source="RmbWy2bbRifr_mFCkCXx-127" target="RmbWy2bbRifr_mFCkCXx-133">
          <mxGeometry relative="1" as="geometry">
            <mxPoint x="1168" y="2768" as="sourcePoint" />
          </mxGeometry>
        </mxCell>
        <mxCell id="RmbWy2bbRifr_mFCkCXx-129" style="edgeStyle=orthogonalEdgeStyle;rounded=0;orthogonalLoop=1;jettySize=auto;html=1;fontSize=26;strokeWidth=3;strokeColor=#FF8000;" edge="1" parent="1" source="RmbWy2bbRifr_mFCkCXx-133" target="RmbWy2bbRifr_mFCkCXx-134">
          <mxGeometry relative="1" as="geometry" />
        </mxCell>
        <mxCell id="RmbWy2bbRifr_mFCkCXx-130" style="edgeStyle=orthogonalEdgeStyle;rounded=0;orthogonalLoop=1;jettySize=auto;html=1;entryX=0.5;entryY=1;entryDx=0;entryDy=0;fontSize=26;strokeWidth=3;strokeColor=#FF9933;" edge="1" parent="1" source="RmbWy2bbRifr_mFCkCXx-133" target="RmbWy2bbRifr_mFCkCXx-122">
          <mxGeometry relative="1" as="geometry" />
        </mxCell>
        <mxCell id="RmbWy2bbRifr_mFCkCXx-131" style="edgeStyle=orthogonalEdgeStyle;rounded=0;orthogonalLoop=1;jettySize=auto;html=1;entryX=1;entryY=0.5;entryDx=0;entryDy=0;fontSize=26;strokeWidth=3;strokeColor=#FF8000;" edge="1" parent="1" source="RmbWy2bbRifr_mFCkCXx-133" target="RmbWy2bbRifr_mFCkCXx-114">
          <mxGeometry relative="1" as="geometry">
            <Array as="points">
              <mxPoint x="1016" y="2807" />
              <mxPoint x="1016" y="2373" />
            </Array>
          </mxGeometry>
        </mxCell>
        <mxCell id="RmbWy2bbRifr_mFCkCXx-132" style="edgeStyle=orthogonalEdgeStyle;rounded=0;orthogonalLoop=1;jettySize=auto;html=1;fontSize=26;strokeWidth=3;strokeColor=#FF8000;" edge="1" parent="1" source="RmbWy2bbRifr_mFCkCXx-133" target="RmbWy2bbRifr_mFCkCXx-139">
          <mxGeometry relative="1" as="geometry">
            <Array as="points">
              <mxPoint x="1017" y="2807" />
              <mxPoint x="1017" y="2978" />
              <mxPoint x="388" y="2978" />
            </Array>
          </mxGeometry>
        </mxCell>
        <mxCell id="RmbWy2bbRifr_mFCkCXx-145" style="edgeStyle=orthogonalEdgeStyle;rounded=0;orthogonalLoop=1;jettySize=auto;html=1;fontSize=31;strokeColor=#000000;strokeWidth=5;dashed=1;" edge="1" parent="1" source="RmbWy2bbRifr_mFCkCXx-133" target="RmbWy2bbRifr_mFCkCXx-121">
          <mxGeometry relative="1" as="geometry" />
        </mxCell>
        <mxCell id="RmbWy2bbRifr_mFCkCXx-146" style="edgeStyle=orthogonalEdgeStyle;rounded=0;orthogonalLoop=1;jettySize=auto;html=1;entryX=0.25;entryY=1;entryDx=0;entryDy=0;dashed=1;fontSize=31;strokeColor=#000000;strokeWidth=5;" edge="1" parent="1" source="RmbWy2bbRifr_mFCkCXx-133" target="RmbWy2bbRifr_mFCkCXx-126">
          <mxGeometry relative="1" as="geometry">
            <Array as="points">
              <mxPoint x="1017" y="2807" />
              <mxPoint x="1017" y="2932" />
              <mxPoint x="91" y="2932" />
            </Array>
          </mxGeometry>
        </mxCell>
        <mxCell id="RmbWy2bbRifr_mFCkCXx-149" style="edgeStyle=orthogonalEdgeStyle;rounded=0;orthogonalLoop=1;jettySize=auto;html=1;entryX=0.294;entryY=1.019;entryDx=0;entryDy=0;dashed=1;fontSize=31;fontColor=#CC0000;strokeColor=#000000;strokeWidth=5;entryPerimeter=0;" edge="1" parent="1" source="RmbWy2bbRifr_mFCkCXx-133" target="RmbWy2bbRifr_mFCkCXx-139">
          <mxGeometry relative="1" as="geometry">
            <Array as="points">
              <mxPoint x="1017" y="2807" />
              <mxPoint x="1017" y="3010" />
              <mxPoint x="340" y="3010" />
            </Array>
          </mxGeometry>
        </mxCell>
        <mxCell id="RmbWy2bbRifr_mFCkCXx-133" value="上线推送" style="rounded=0;whiteSpace=wrap;html=1;fontSize=26;fillColor=#990000;fontColor=#ffffff;strokeColor=#B20000;" vertex="1" parent="1">
          <mxGeometry x="1068" y="2772" width="200" height="70" as="geometry" />
        </mxCell>
        <mxCell id="RmbWy2bbRifr_mFCkCXx-134" value="OIDB关系链" style="rounded=0;whiteSpace=wrap;html=1;fontSize=26;fillColor=#e1d5e7;strokeColor=#9673a6;" vertex="1" parent="1">
          <mxGeometry x="1068" y="2989" width="200" height="70" as="geometry" />
        </mxCell>
        <mxCell id="RmbWy2bbRifr_mFCkCXx-135" value="" style="group" vertex="1" connectable="0" parent="1">
          <mxGeometry x="278" y="2688" width="237" height="80" as="geometry" />
        </mxCell>
        <mxCell id="RmbWy2bbRifr_mFCkCXx-136" value="" style="shape=document;whiteSpace=wrap;html=1;boundedLbl=1;fontSize=26;rotation=-180;fillColor=#ffcd28;gradientColor=#ffa500;strokeColor=#d79b00;" vertex="1" parent="RmbWy2bbRifr_mFCkCXx-135">
          <mxGeometry width="210" height="80" as="geometry" />
        </mxCell>
        <mxCell id="RmbWy2bbRifr_mFCkCXx-137" value="房间状态信息&lt;br&gt;redis" style="text;html=1;strokeColor=none;fillColor=none;align=center;verticalAlign=middle;whiteSpace=wrap;rounded=0;fontSize=26;" vertex="1" parent="RmbWy2bbRifr_mFCkCXx-135">
          <mxGeometry x="1" y="35" width="210" height="30" as="geometry" />
        </mxCell>
        <mxCell id="RmbWy2bbRifr_mFCkCXx-138" style="edgeStyle=orthogonalEdgeStyle;rounded=0;orthogonalLoop=1;jettySize=auto;html=1;entryX=0.5;entryY=0;entryDx=0;entryDy=0;fontSize=26;strokeWidth=3;" edge="1" parent="1" source="RmbWy2bbRifr_mFCkCXx-139" target="RmbWy2bbRifr_mFCkCXx-136">
          <mxGeometry relative="1" as="geometry" />
        </mxCell>
        <mxCell id="RmbWy2bbRifr_mFCkCXx-139" value="房间状态同步服务&lt;br&gt;roomState" style="rounded=0;whiteSpace=wrap;html=1;fontSize=26;fillColor=#e1d5e7;strokeColor=#9673a6;" vertex="1" parent="1">
          <mxGeometry x="278" y="2838" width="210" height="70" as="geometry" />
        </mxCell>
        <mxCell id="RmbWy2bbRifr_mFCkCXx-140" value="&lt;b&gt;&lt;font style=&quot;font-size: 31px;&quot;&gt;②&lt;/font&gt;&lt;/b&gt;" style="text;html=1;strokeColor=none;fillColor=none;align=center;verticalAlign=middle;whiteSpace=wrap;rounded=0;fontSize=26;" vertex="1" parent="1">
          <mxGeometry x="1168" y="2857" width="60" height="50" as="geometry" />
        </mxCell>
        <mxCell id="RmbWy2bbRifr_mFCkCXx-141" value="&lt;span style=&quot;font-size: 31px;&quot;&gt;&lt;b&gt;③&lt;/b&gt;&lt;/span&gt;" style="text;html=1;strokeColor=none;fillColor=none;align=center;verticalAlign=middle;whiteSpace=wrap;rounded=0;fontSize=26;" vertex="1" parent="1">
          <mxGeometry x="510" y="2943" width="60" height="50" as="geometry" />
        </mxCell>
        <mxCell id="RmbWy2bbRifr_mFCkCXx-147" value="&lt;font color=&quot;#cc0000&quot;&gt;Ⅰ&lt;/font&gt;" style="text;html=1;strokeColor=none;fillColor=none;align=center;verticalAlign=middle;whiteSpace=wrap;rounded=0;fontSize=31;" vertex="1" parent="1">
          <mxGeometry x="676" y="3027" width="60" height="30" as="geometry" />
        </mxCell>
        <mxCell id="RmbWy2bbRifr_mFCkCXx-150" value="&lt;font color=&quot;#cc0000&quot;&gt;Ⅱ&lt;/font&gt;" style="text;html=1;strokeColor=none;fillColor=none;align=center;verticalAlign=middle;whiteSpace=wrap;rounded=0;fontSize=31;" vertex="1" parent="1">
          <mxGeometry x="820" y="2838" width="60" height="30" as="geometry" />
        </mxCell>
        <mxCell id="RmbWy2bbRifr_mFCkCXx-152" value="&lt;font color=&quot;#cc0000&quot;&gt;Ⅲ&lt;/font&gt;" style="text;html=1;strokeColor=none;fillColor=none;align=center;verticalAlign=middle;whiteSpace=wrap;rounded=0;fontSize=31;" vertex="1" parent="1">
          <mxGeometry x="120" y="2945" width="60" height="30" as="geometry" />
        </mxCell>
        <mxCell id="RmbWy2bbRifr_mFCkCXx-153" value="" style="endArrow=none;dashed=1;html=1;rounded=0;fontSize=31;fontColor=#CC0000;strokeColor=#000000;strokeWidth=5;" edge="1" parent="1">
          <mxGeometry width="50" height="50" relative="1" as="geometry">
            <mxPoint x="-545" y="2801" as="sourcePoint" />
            <mxPoint x="-478" y="2801" as="targetPoint" />
          </mxGeometry>
        </mxCell>
        <mxCell id="RmbWy2bbRifr_mFCkCXx-154" value="&lt;font style=&quot;font-size: 26px;&quot;&gt;&lt;span style=&quot;color: rgb(0, 0, 0); font-family: Helvetica; font-style: normal; font-variant-ligatures: normal; font-variant-caps: normal; font-weight: 400; letter-spacing: normal; orphans: 2; text-indent: 0px; text-transform: none; widows: 2; word-spacing: 0px; -webkit-text-stroke-width: 0px; text-decoration-style: initial; text-decoration-color: initial; float: none; display: inline !important;&quot;&gt;流控IP信息&lt;/span&gt;&lt;br style=&quot;color: rgb(0, 0, 0); font-family: Helvetica; font-style: normal; font-variant-ligatures: normal; font-variant-caps: normal; font-weight: 400; letter-spacing: normal; orphans: 2; text-indent: 0px; text-transform: none; widows: 2; word-spacing: 0px; -webkit-text-stroke-width: 0px; text-decoration-style: initial; text-decoration-color: initial;&quot;&gt;&lt;span style=&quot;color: rgb(0, 0, 0); font-family: Helvetica; font-style: normal; font-variant-ligatures: normal; font-variant-caps: normal; font-weight: 400; letter-spacing: normal; orphans: 2; text-indent: 0px; text-transform: none; widows: 2; word-spacing: 0px; -webkit-text-stroke-width: 0px; text-decoration-style: initial; text-decoration-color: initial; float: none; display: inline !important;&quot;&gt;redis&lt;/span&gt;&lt;/font&gt;" style="text;whiteSpace=wrap;html=1;fontSize=31;fontColor=#CC0000;align=center;" vertex="1" parent="1">
          <mxGeometry x="547.5" y="2833" width="191" height="54.5" as="geometry" />
        </mxCell>
        <mxCell id="RmbWy2bbRifr_mFCkCXx-159" value="" style="rounded=0;whiteSpace=wrap;html=1;fontSize=26;fillColor=#e1d5e7;strokeColor=#9673a6;" vertex="1" parent="1">
          <mxGeometry x="1101" y="2158" width="77" height="38" as="geometry" />
        </mxCell>
        <mxCell id="RmbWy2bbRifr_mFCkCXx-160" value="&lt;font color=&quot;#000000&quot;&gt;上下游依赖的服务&lt;/font&gt;" style="text;html=1;strokeColor=none;fillColor=none;align=center;verticalAlign=middle;whiteSpace=wrap;rounded=0;fontSize=26;fontColor=#CC0000;" vertex="1" parent="1">
          <mxGeometry x="1188" y="2162" width="215" height="30" as="geometry" />
        </mxCell>
        <mxCell id="RmbWy2bbRifr_mFCkCXx-162" value="" style="rounded=0;whiteSpace=wrap;html=1;fontSize=26;fillColor=#008a00;strokeColor=#005700;fontColor=#ffffff;" vertex="1" parent="1">
          <mxGeometry x="1101" y="2212" width="77" height="38" as="geometry" />
        </mxCell>
        <mxCell id="RmbWy2bbRifr_mFCkCXx-163" value="&lt;font color=&quot;#000000&quot;&gt;引擎层服务&lt;/font&gt;" style="text;html=1;strokeColor=none;fillColor=none;align=center;verticalAlign=middle;whiteSpace=wrap;rounded=0;fontSize=26;fontColor=#CC0000;" vertex="1" parent="1">
          <mxGeometry x="1194" y="2212" width="180" height="30" as="geometry" />
        </mxCell>
        <mxCell id="RmbWy2bbRifr_mFCkCXx-164" value="" style="group" vertex="1" connectable="0" parent="1">
          <mxGeometry x="1101" y="2263" width="87" height="41" as="geometry" />
        </mxCell>
        <mxCell id="RmbWy2bbRifr_mFCkCXx-165" value="" style="shape=document;whiteSpace=wrap;html=1;boundedLbl=1;fontSize=26;rotation=-180;fillColor=#ffcd28;gradientColor=#ffa500;strokeColor=#d79b00;" vertex="1" parent="RmbWy2bbRifr_mFCkCXx-164">
          <mxGeometry width="77.0886075949367" height="41" as="geometry" />
        </mxCell>
        <mxCell id="RmbWy2bbRifr_mFCkCXx-167" value="&lt;font color=&quot;#000000&quot;&gt;存储层&lt;/font&gt;" style="text;html=1;strokeColor=none;fillColor=none;align=center;verticalAlign=middle;whiteSpace=wrap;rounded=0;fontSize=26;fontColor=#CC0000;" vertex="1" parent="1">
          <mxGeometry x="1194" y="2268.5" width="180" height="30" as="geometry" />
        </mxCell>
        <mxCell id="RmbWy2bbRifr_mFCkCXx-169" value="" style="rounded=0;whiteSpace=wrap;html=1;fontSize=26;fillColor=#990000;strokeColor=#9673a6;" vertex="1" parent="1">
          <mxGeometry x="1101" y="2104" width="77" height="38" as="geometry" />
        </mxCell>
        <mxCell id="RmbWy2bbRifr_mFCkCXx-170" value="&lt;font color=&quot;#000000&quot;&gt;上线推送核心&lt;/font&gt;" style="text;html=1;strokeColor=none;fillColor=none;align=center;verticalAlign=middle;whiteSpace=wrap;rounded=0;fontSize=26;fontColor=#CC0000;" vertex="1" parent="1">
          <mxGeometry x="1176.5" y="2108" width="215" height="30" as="geometry" />
        </mxCell>
        <mxCell id="RmbWy2bbRifr_mFCkCXx-173" value="" style="endArrow=classic;html=1;rounded=0;fontSize=26;fontColor=#000000;strokeColor=#FF8000;strokeWidth=3;" edge="1" parent="1">
          <mxGeometry width="50" height="50" relative="1" as="geometry">
            <mxPoint x="1106.5" y="2380" as="sourcePoint" />
            <mxPoint x="1182.5" y="2380" as="targetPoint" />
          </mxGeometry>
        </mxCell>
        <mxCell id="RmbWy2bbRifr_mFCkCXx-174" value="&lt;font color=&quot;#000000&quot;&gt;上线推送流程&lt;/font&gt;" style="text;html=1;strokeColor=none;fillColor=none;align=center;verticalAlign=middle;whiteSpace=wrap;rounded=0;fontSize=26;fontColor=#CC0000;" vertex="1" parent="1">
          <mxGeometry x="1193.5" y="2364" width="180" height="30" as="geometry" />
        </mxCell>
        <mxCell id="RmbWy2bbRifr_mFCkCXx-175" value="" style="endArrow=classic;html=1;rounded=0;fontSize=26;fontColor=#000000;strokeColor=#000000;strokeWidth=3;" edge="1" parent="1">
          <mxGeometry width="50" height="50" relative="1" as="geometry">
            <mxPoint x="1109.5" y="2418" as="sourcePoint" />
            <mxPoint x="1185.5" y="2418" as="targetPoint" />
          </mxGeometry>
        </mxCell>
        <mxCell id="RmbWy2bbRifr_mFCkCXx-176" value="&lt;font color=&quot;#000000&quot;&gt;音视频消息流程&lt;/font&gt;" style="text;html=1;strokeColor=none;fillColor=none;align=center;verticalAlign=middle;whiteSpace=wrap;rounded=0;fontSize=26;fontColor=#CC0000;" vertex="1" parent="1">
          <mxGeometry x="1196.5" y="2402" width="195" height="30" as="geometry" />
        </mxCell>
        <mxCell id="RmbWy2bbRifr_mFCkCXx-178" value="" style="rounded=0;whiteSpace=wrap;html=1;fontSize=26;" vertex="1" parent="1">
          <mxGeometry x="1103" y="2317" width="77" height="38" as="geometry" />
        </mxCell>
        <mxCell id="RmbWy2bbRifr_mFCkCXx-179" value="&lt;font color=&quot;#000000&quot;&gt;音视频支持服务&lt;/font&gt;" style="text;html=1;strokeColor=none;fillColor=none;align=center;verticalAlign=middle;whiteSpace=wrap;rounded=0;fontSize=26;fontColor=#CC0000;" vertex="1" parent="1">
          <mxGeometry x="1190" y="2321" width="215" height="30" as="geometry" />
        </mxCell>
        <mxCell id="RmbWy2bbRifr_mFCkCXx-180" value="&lt;p&gt;&lt;span&gt;------(&lt;/span&gt;&lt;span&gt;虚线&lt;/span&gt;&lt;span&gt;)&amp;nbsp; &amp;nbsp;&amp;nbsp;&lt;/span&gt;&lt;span&gt;老流程&lt;/span&gt;&lt;/p&gt;&lt;p&gt;&lt;span&gt;——(&lt;/span&gt;&lt;span&gt;实线&lt;/span&gt;&lt;span&gt;)&amp;nbsp; &amp;nbsp; &amp;nbsp;&lt;/span&gt;&lt;span&gt;新流程&lt;/span&gt;&lt;/p&gt;" style="text;whiteSpace=wrap;html=1;fontSize=26;fontColor=#000000;" vertex="1" parent="1">
          <mxGeometry x="1108" y="2409.5" width="297" height="145" as="geometry" />
        </mxCell>
        <mxCell id="RmbWy2bbRifr_mFCkCXx-182" value="&lt;span style=&quot;color: rgb(0, 0, 0); font-family: Helvetica; font-size: 26px; font-style: normal; font-variant-ligatures: normal; font-variant-caps: normal; font-weight: 400; letter-spacing: normal; orphans: 2; text-indent: 0px; text-transform: none; widows: 2; word-spacing: 0px; -webkit-text-stroke-width: 0px; text-decoration-style: initial; text-decoration-color: initial; float: none; display: inline !important;&quot;&gt;流控IP信息&lt;/span&gt;&lt;br style=&quot;color: rgb(0, 0, 0); font-family: Helvetica; font-size: 26px; font-style: normal; font-variant-ligatures: normal; font-variant-caps: normal; font-weight: 400; letter-spacing: normal; orphans: 2; text-indent: 0px; text-transform: none; widows: 2; word-spacing: 0px; -webkit-text-stroke-width: 0px; text-decoration-style: initial; text-decoration-color: initial;&quot;&gt;&lt;span style=&quot;color: rgb(0, 0, 0); font-family: Helvetica; font-size: 26px; font-style: normal; font-variant-ligatures: normal; font-variant-caps: normal; font-weight: 400; letter-spacing: normal; orphans: 2; text-indent: 0px; text-transform: none; widows: 2; word-spacing: 0px; -webkit-text-stroke-width: 0px; text-decoration-style: initial; text-decoration-color: initial; float: none; display: inline !important;&quot;&gt;redis&lt;/span&gt;" style="text;whiteSpace=wrap;html=1;fontSize=26;fontColor=#000000;align=center;" vertex="1" parent="1">
          <mxGeometry x="236" y="738.5" width="196" height="83" as="geometry" />
        </mxCell>
        <mxCell id="RmbWy2bbRifr_mFCkCXx-183" value="" style="rounded=0;whiteSpace=wrap;html=1;labelBackgroundColor=none;fontSize=26;" vertex="1" parent="1">
          <mxGeometry x="-258" y="969" width="1258" height="87" as="geometry" />
        </mxCell>
        <mxCell id="RmbWy2bbRifr_mFCkCXx-184" value="指标监控：monitor云监控" style="text;html=1;strokeColor=#666666;fillColor=#f5f5f5;align=center;verticalAlign=middle;whiteSpace=wrap;rounded=0;labelBackgroundColor=none;fontSize=26;gradientColor=#b3b3b3;" vertex="1" parent="1">
          <mxGeometry x="-214" y="985.5" width="314" height="54" as="geometry" />
        </mxCell>
        <mxCell id="RmbWy2bbRifr_mFCkCXx-185" value="配置管理：织云包管理平台" style="text;html=1;strokeColor=#666666;fillColor=#f5f5f5;align=center;verticalAlign=middle;whiteSpace=wrap;rounded=0;labelBackgroundColor=none;fontSize=26;gradientColor=#b3b3b3;" vertex="1" parent="1">
          <mxGeometry x="220" y="983" width="314" height="54" as="geometry" />
        </mxCell>
        <mxCell id="RmbWy2bbRifr_mFCkCXx-187" value="名字服务：CMLB" style="text;html=1;strokeColor=#666666;fillColor=#f5f5f5;align=center;verticalAlign=middle;whiteSpace=wrap;rounded=0;labelBackgroundColor=none;fontSize=26;gradientColor=#b3b3b3;" vertex="1" parent="1">
          <mxGeometry x="652" y="985.5" width="314" height="54" as="geometry" />
        </mxCell>
        <mxCell id="RmbWy2bbRifr_mFCkCXx-188" value="" style="rounded=0;whiteSpace=wrap;html=1;labelBackgroundColor=none;fontSize=26;" vertex="1" parent="1">
          <mxGeometry x="-269" y="1884" width="1219" height="87" as="geometry" />
        </mxCell>
        <mxCell id="RmbWy2bbRifr_mFCkCXx-189" value="指标监控：007云监控，天机阁" style="text;html=1;strokeColor=#666666;fillColor=#f5f5f5;align=center;verticalAlign=middle;whiteSpace=wrap;rounded=0;labelBackgroundColor=none;fontSize=26;gradientColor=#b3b3b3;" vertex="1" parent="1">
          <mxGeometry x="-236" y="1900.5" width="372" height="54" as="geometry" />
        </mxCell>
        <mxCell id="RmbWy2bbRifr_mFCkCXx-190" value="配置管理：rainbow远程平台" style="text;html=1;strokeColor=#666666;fillColor=#f5f5f5;align=center;verticalAlign=middle;whiteSpace=wrap;rounded=0;labelBackgroundColor=none;fontSize=26;gradientColor=#b3b3b3;" vertex="1" parent="1">
          <mxGeometry x="187" y="1900.5" width="364" height="54" as="geometry" />
        </mxCell>
        <mxCell id="RmbWy2bbRifr_mFCkCXx-191" value="名字服务：北极星" style="text;html=1;strokeColor=#666666;fillColor=#f5f5f5;align=center;verticalAlign=middle;whiteSpace=wrap;rounded=0;labelBackgroundColor=none;fontSize=26;gradientColor=#b3b3b3;" vertex="1" parent="1">
          <mxGeometry x="604" y="1900.5" width="314" height="54" as="geometry" />
        </mxCell>
        <mxCell id="RmbWy2bbRifr_mFCkCXx-194" style="edgeStyle=orthogonalEdgeStyle;rounded=0;orthogonalLoop=1;jettySize=auto;html=1;fontSize=26;strokeWidth=3;" edge="1" parent="1" source="RmbWy2bbRifr_mFCkCXx-195" target="RmbWy2bbRifr_mFCkCXx-196">
          <mxGeometry relative="1" as="geometry" />
        </mxCell>
        <mxCell id="RmbWy2bbRifr_mFCkCXx-195" value="音视频调度服务" style="rounded=0;whiteSpace=wrap;html=1;fontSize=26;" vertex="1" parent="1">
          <mxGeometry x="594" y="3222" width="210" height="70" as="geometry" />
        </mxCell>
        <mxCell id="RmbWy2bbRifr_mFCkCXx-196" value="" style="shape=document;whiteSpace=wrap;html=1;boundedLbl=1;fontSize=26;fillColor=#ffcd28;gradientColor=#ffa500;strokeColor=#d79b00;" vertex="1" parent="1">
          <mxGeometry x="594" y="3352" width="210" height="80" as="geometry" />
        </mxCell>
        <mxCell id="RmbWy2bbRifr_mFCkCXx-197" style="edgeStyle=orthogonalEdgeStyle;rounded=0;orthogonalLoop=1;jettySize=auto;html=1;exitX=0.627;exitY=0.995;exitDx=0;exitDy=0;entryX=0;entryY=0.5;entryDx=0;entryDy=0;fontSize=26;strokeWidth=3;exitPerimeter=0;" edge="1" parent="1" source="RmbWy2bbRifr_mFCkCXx-198" target="RmbWy2bbRifr_mFCkCXx-210">
          <mxGeometry relative="1" as="geometry">
            <Array as="points">
              <mxPoint x="224" y="3282" />
              <mxPoint x="224" y="3387" />
            </Array>
          </mxGeometry>
        </mxCell>
        <mxCell id="RmbWy2bbRifr_mFCkCXx-198" value="音视频流控" style="rounded=0;whiteSpace=wrap;html=1;fontSize=26;fillColor=#008a00;fontColor=#ffffff;strokeColor=#005700;" vertex="1" parent="1">
          <mxGeometry x="94" y="3212" width="210" height="70" as="geometry" />
        </mxCell>
        <mxCell id="RmbWy2bbRifr_mFCkCXx-199" style="edgeStyle=orthogonalEdgeStyle;rounded=0;orthogonalLoop=1;jettySize=auto;html=1;fontSize=26;strokeWidth=3;strokeColor=#FF8000;" edge="1" parent="1" source="RmbWy2bbRifr_mFCkCXx-204" target="RmbWy2bbRifr_mFCkCXx-205">
          <mxGeometry relative="1" as="geometry" />
        </mxCell>
        <mxCell id="RmbWy2bbRifr_mFCkCXx-200" style="edgeStyle=orthogonalEdgeStyle;rounded=0;orthogonalLoop=1;jettySize=auto;html=1;fontSize=26;strokeWidth=3;strokeColor=#FF8000;" edge="1" parent="1" source="RmbWy2bbRifr_mFCkCXx-204" target="RmbWy2bbRifr_mFCkCXx-210">
          <mxGeometry relative="1" as="geometry">
            <Array as="points">
              <mxPoint x="1073" y="3321" />
              <mxPoint x="1073" y="3492" />
              <mxPoint x="444" y="3492" />
            </Array>
          </mxGeometry>
        </mxCell>
        <mxCell id="RmbWy2bbRifr_mFCkCXx-201" style="edgeStyle=orthogonalEdgeStyle;rounded=0;orthogonalLoop=1;jettySize=auto;html=1;fontSize=31;strokeColor=#000000;strokeWidth=5;dashed=1;" edge="1" parent="1" source="RmbWy2bbRifr_mFCkCXx-204" target="RmbWy2bbRifr_mFCkCXx-196">
          <mxGeometry relative="1" as="geometry" />
        </mxCell>
        <mxCell id="RmbWy2bbRifr_mFCkCXx-202" style="edgeStyle=orthogonalEdgeStyle;rounded=0;orthogonalLoop=1;jettySize=auto;html=1;entryX=0.25;entryY=1;entryDx=0;entryDy=0;dashed=1;fontSize=31;strokeColor=#000000;strokeWidth=5;" edge="1" parent="1" source="RmbWy2bbRifr_mFCkCXx-204" target="RmbWy2bbRifr_mFCkCXx-198">
          <mxGeometry relative="1" as="geometry">
            <Array as="points">
              <mxPoint x="1073" y="3321" />
              <mxPoint x="1073" y="3446" />
              <mxPoint x="147" y="3446" />
            </Array>
          </mxGeometry>
        </mxCell>
        <mxCell id="RmbWy2bbRifr_mFCkCXx-203" style="edgeStyle=orthogonalEdgeStyle;rounded=0;orthogonalLoop=1;jettySize=auto;html=1;entryX=0.294;entryY=1.019;entryDx=0;entryDy=0;dashed=1;fontSize=31;fontColor=#CC0000;strokeColor=#000000;strokeWidth=5;entryPerimeter=0;" edge="1" parent="1" source="RmbWy2bbRifr_mFCkCXx-204" target="RmbWy2bbRifr_mFCkCXx-210">
          <mxGeometry relative="1" as="geometry">
            <Array as="points">
              <mxPoint x="1073" y="3321" />
              <mxPoint x="1073" y="3524" />
              <mxPoint x="396" y="3524" />
            </Array>
          </mxGeometry>
        </mxCell>
        <mxCell id="RmbWy2bbRifr_mFCkCXx-204" value="上线推送" style="rounded=0;whiteSpace=wrap;html=1;fontSize=26;fillColor=#990000;fontColor=#ffffff;strokeColor=#B20000;" vertex="1" parent="1">
          <mxGeometry x="1124" y="3286" width="200" height="70" as="geometry" />
        </mxCell>
        <mxCell id="RmbWy2bbRifr_mFCkCXx-205" value="OIDB关系链" style="rounded=0;whiteSpace=wrap;html=1;fontSize=26;fillColor=#e1d5e7;strokeColor=#9673a6;" vertex="1" parent="1">
          <mxGeometry x="1124" y="3503" width="200" height="70" as="geometry" />
        </mxCell>
        <mxCell id="RmbWy2bbRifr_mFCkCXx-206" value="" style="group" vertex="1" connectable="0" parent="1">
          <mxGeometry x="334" y="3202" width="237" height="80" as="geometry" />
        </mxCell>
        <mxCell id="RmbWy2bbRifr_mFCkCXx-207" value="" style="shape=document;whiteSpace=wrap;html=1;boundedLbl=1;fontSize=26;rotation=-180;fillColor=#ffcd28;gradientColor=#ffa500;strokeColor=#d79b00;" vertex="1" parent="RmbWy2bbRifr_mFCkCXx-206">
          <mxGeometry width="210" height="80" as="geometry" />
        </mxCell>
        <mxCell id="RmbWy2bbRifr_mFCkCXx-208" value="房间状态信息&lt;br&gt;redis" style="text;html=1;strokeColor=none;fillColor=none;align=center;verticalAlign=middle;whiteSpace=wrap;rounded=0;fontSize=26;" vertex="1" parent="RmbWy2bbRifr_mFCkCXx-206">
          <mxGeometry x="1" y="35" width="210" height="30" as="geometry" />
        </mxCell>
        <mxCell id="RmbWy2bbRifr_mFCkCXx-209" style="edgeStyle=orthogonalEdgeStyle;rounded=0;orthogonalLoop=1;jettySize=auto;html=1;entryX=0.5;entryY=0;entryDx=0;entryDy=0;fontSize=26;strokeWidth=3;" edge="1" parent="1" source="RmbWy2bbRifr_mFCkCXx-210" target="RmbWy2bbRifr_mFCkCXx-207">
          <mxGeometry relative="1" as="geometry" />
        </mxCell>
        <mxCell id="RmbWy2bbRifr_mFCkCXx-210" value="房间状态同步服务&lt;br&gt;roomState" style="rounded=0;whiteSpace=wrap;html=1;fontSize=26;fillColor=#e1d5e7;strokeColor=#9673a6;" vertex="1" parent="1">
          <mxGeometry x="334" y="3352" width="210" height="70" as="geometry" />
        </mxCell>
        <mxCell id="RmbWy2bbRifr_mFCkCXx-213" value="&lt;font color=&quot;#cc0000&quot;&gt;Ⅰ&lt;/font&gt;" style="text;html=1;strokeColor=none;fillColor=none;align=center;verticalAlign=middle;whiteSpace=wrap;rounded=0;fontSize=31;" vertex="1" parent="1">
          <mxGeometry x="732" y="3541" width="60" height="30" as="geometry" />
        </mxCell>
        <mxCell id="RmbWy2bbRifr_mFCkCXx-214" value="&lt;font color=&quot;#cc0000&quot;&gt;Ⅱ&lt;/font&gt;" style="text;html=1;strokeColor=none;fillColor=none;align=center;verticalAlign=middle;whiteSpace=wrap;rounded=0;fontSize=31;" vertex="1" parent="1">
          <mxGeometry x="876" y="3352" width="60" height="30" as="geometry" />
        </mxCell>
        <mxCell id="RmbWy2bbRifr_mFCkCXx-215" value="&lt;font color=&quot;#cc0000&quot;&gt;Ⅲ&lt;/font&gt;" style="text;html=1;strokeColor=none;fillColor=none;align=center;verticalAlign=middle;whiteSpace=wrap;rounded=0;fontSize=31;" vertex="1" parent="1">
          <mxGeometry x="176" y="3459" width="60" height="30" as="geometry" />
        </mxCell>
        <mxCell id="RmbWy2bbRifr_mFCkCXx-216" value="&lt;font style=&quot;font-size: 26px;&quot;&gt;&lt;span style=&quot;color: rgb(0, 0, 0); font-family: Helvetica; font-style: normal; font-variant-ligatures: normal; font-variant-caps: normal; font-weight: 400; letter-spacing: normal; orphans: 2; text-indent: 0px; text-transform: none; widows: 2; word-spacing: 0px; -webkit-text-stroke-width: 0px; text-decoration-style: initial; text-decoration-color: initial; float: none; display: inline !important;&quot;&gt;流控IP信息&lt;/span&gt;&lt;br style=&quot;color: rgb(0, 0, 0); font-family: Helvetica; font-style: normal; font-variant-ligatures: normal; font-variant-caps: normal; font-weight: 400; letter-spacing: normal; orphans: 2; text-indent: 0px; text-transform: none; widows: 2; word-spacing: 0px; -webkit-text-stroke-width: 0px; text-decoration-style: initial; text-decoration-color: initial;&quot;&gt;&lt;span style=&quot;color: rgb(0, 0, 0); font-family: Helvetica; font-style: normal; font-variant-ligatures: normal; font-variant-caps: normal; font-weight: 400; letter-spacing: normal; orphans: 2; text-indent: 0px; text-transform: none; widows: 2; word-spacing: 0px; -webkit-text-stroke-width: 0px; text-decoration-style: initial; text-decoration-color: initial; float: none; display: inline !important;&quot;&gt;redis&lt;/span&gt;&lt;/font&gt;" style="text;whiteSpace=wrap;html=1;fontSize=31;fontColor=#CC0000;align=center;" vertex="1" parent="1">
          <mxGeometry x="603.5" y="3347" width="191" height="54.5" as="geometry" />
        </mxCell>
        <mxCell id="RmbWy2bbRifr_mFCkCXx-218" value="&lt;b&gt;&lt;font style=&quot;font-size: 31px;&quot;&gt;①&lt;/font&gt;&lt;/b&gt;" style="text;html=1;strokeColor=none;fillColor=none;align=center;verticalAlign=middle;whiteSpace=wrap;rounded=0;fontSize=26;" vertex="1" parent="1">
          <mxGeometry x="1173" y="2666" width="60" height="50" as="geometry" />
        </mxCell>
        <mxCell id="RmbWy2bbRifr_mFCkCXx-243" style="edgeStyle=orthogonalEdgeStyle;rounded=0;orthogonalLoop=1;jettySize=auto;html=1;exitX=0.5;exitY=1;exitDx=0;exitDy=0;entryX=0;entryY=0.5;entryDx=0;entryDy=0;fontSize=26;fontColor=#000000;strokeColor=#000000;strokeWidth=3;" edge="1" parent="1" source="RmbWy2bbRifr_mFCkCXx-224" target="RmbWy2bbRifr_mFCkCXx-236">
          <mxGeometry relative="1" as="geometry">
            <Array as="points">
              <mxPoint x="132" y="3674" />
              <mxPoint x="136" y="3674" />
              <mxPoint x="136" y="3814" />
            </Array>
          </mxGeometry>
        </mxCell>
        <mxCell id="RmbWy2bbRifr_mFCkCXx-224" value="音视频流控" style="rounded=0;whiteSpace=wrap;html=1;fontSize=26;" vertex="1" parent="1">
          <mxGeometry x="23" y="3618" width="210" height="70" as="geometry" />
        </mxCell>
        <mxCell id="RmbWy2bbRifr_mFCkCXx-225" style="edgeStyle=orthogonalEdgeStyle;rounded=0;orthogonalLoop=1;jettySize=auto;html=1;fontSize=26;strokeWidth=3;strokeColor=#FF8000;" edge="1" parent="1" source="RmbWy2bbRifr_mFCkCXx-230" target="RmbWy2bbRifr_mFCkCXx-231">
          <mxGeometry relative="1" as="geometry" />
        </mxCell>
        <mxCell id="RmbWy2bbRifr_mFCkCXx-226" style="edgeStyle=orthogonalEdgeStyle;rounded=0;orthogonalLoop=1;jettySize=auto;html=1;fontSize=26;strokeWidth=3;strokeColor=#FF8000;exitX=0;exitY=0.5;exitDx=0;exitDy=0;entryX=1;entryY=0.5;entryDx=0;entryDy=0;" edge="1" parent="1" source="RmbWy2bbRifr_mFCkCXx-230" target="RmbWy2bbRifr_mFCkCXx-236">
          <mxGeometry relative="1" as="geometry">
            <Array as="points">
              <mxPoint x="754" y="3815" />
              <mxPoint x="754" y="3815" />
            </Array>
          </mxGeometry>
        </mxCell>
        <mxCell id="RmbWy2bbRifr_mFCkCXx-230" value="上线推送" style="rounded=0;whiteSpace=wrap;html=1;fontSize=26;fillColor=#990000;fontColor=#ffffff;strokeColor=#B20000;" vertex="1" parent="1">
          <mxGeometry x="800" y="3774" width="200" height="70" as="geometry" />
        </mxCell>
        <mxCell id="RmbWy2bbRifr_mFCkCXx-231" value="OIDB关系链" style="rounded=0;whiteSpace=wrap;html=1;fontSize=26;fillColor=#e1d5e7;strokeColor=#9673a6;" vertex="1" parent="1">
          <mxGeometry x="800" y="3620" width="200" height="70" as="geometry" />
        </mxCell>
        <mxCell id="RmbWy2bbRifr_mFCkCXx-232" value="" style="group" vertex="1" connectable="0" parent="1">
          <mxGeometry x="284" y="3604" width="237" height="80" as="geometry" />
        </mxCell>
        <mxCell id="RmbWy2bbRifr_mFCkCXx-233" value="" style="shape=document;whiteSpace=wrap;html=1;boundedLbl=1;fontSize=26;rotation=-180;fillColor=#ffcd28;gradientColor=#ffa500;strokeColor=#d79b00;" vertex="1" parent="RmbWy2bbRifr_mFCkCXx-232">
          <mxGeometry width="210" height="80" as="geometry" />
        </mxCell>
        <mxCell id="RmbWy2bbRifr_mFCkCXx-234" value="房间信息&lt;br&gt;redis" style="text;html=1;strokeColor=none;fillColor=none;align=center;verticalAlign=middle;whiteSpace=wrap;rounded=0;fontSize=26;" vertex="1" parent="RmbWy2bbRifr_mFCkCXx-232">
          <mxGeometry x="1" y="35" width="210" height="30" as="geometry" />
        </mxCell>
        <mxCell id="RmbWy2bbRifr_mFCkCXx-235" style="edgeStyle=orthogonalEdgeStyle;rounded=0;orthogonalLoop=1;jettySize=auto;html=1;entryX=0.5;entryY=0;entryDx=0;entryDy=0;fontSize=26;strokeWidth=3;" edge="1" parent="1" source="RmbWy2bbRifr_mFCkCXx-236" target="RmbWy2bbRifr_mFCkCXx-233">
          <mxGeometry relative="1" as="geometry" />
        </mxCell>
        <mxCell id="RmbWy2bbRifr_mFCkCXx-236" value="房间信息同步服务&lt;br&gt;roomState" style="rounded=0;whiteSpace=wrap;html=1;fontSize=26;fillColor=#e1d5e7;strokeColor=#9673a6;" vertex="1" parent="1">
          <mxGeometry x="283" y="3779" width="210" height="70" as="geometry" />
        </mxCell>
        <mxCell id="RmbWy2bbRifr_mFCkCXx-237" value="&lt;font style=&quot;font-size: 20px;&quot;&gt;&lt;b&gt;①&amp;nbsp;&lt;/b&gt;拉取用户群列表&lt;/font&gt;" style="text;html=1;strokeColor=none;fillColor=none;align=center;verticalAlign=middle;whiteSpace=wrap;rounded=0;fontSize=26;" vertex="1" parent="1">
          <mxGeometry x="825" y="3705" width="330" height="50" as="geometry" />
        </mxCell>
        <mxCell id="RmbWy2bbRifr_mFCkCXx-244" value="&lt;div style=&quot;font-size: 20px;&quot;&gt;&lt;b style=&quot;background-color: initial;&quot;&gt;② &lt;/b&gt;&lt;span style=&quot;background-color: initial;&quot;&gt;&lt;font style=&quot;font-size: 20px;&quot;&gt;查群列表中正在通话的房间信息&lt;/font&gt;&lt;/span&gt;&lt;/div&gt;" style="text;html=1;strokeColor=none;fillColor=none;align=center;verticalAlign=middle;whiteSpace=wrap;rounded=0;fontSize=26;" vertex="1" parent="1">
          <mxGeometry x="572.5" y="3755" width="166" height="50" as="geometry" />
        </mxCell>
        <mxCell id="RmbWy2bbRifr_mFCkCXx-245" value="&lt;font style=&quot;font-size: 20px;&quot;&gt;&lt;b&gt;①&amp;nbsp;&lt;/b&gt;拉取用户群列表&lt;/font&gt;" style="text;html=1;strokeColor=none;fillColor=none;align=center;verticalAlign=middle;whiteSpace=wrap;rounded=0;fontSize=26;" vertex="1" parent="1">
          <mxGeometry x="1225" y="3405" width="178" height="50" as="geometry" />
        </mxCell>
      </root>
    </mxGraphModel>
  </diagram>
</mxfile>
